<svg version="1.2" xmlns="http://www.w3.org/2000/svg" viewBox="0 0 1024 1024" width="256" height="256">
	<title>3bf8e00b-0c20-4c2e-8bb7-4d1968d812d4</title>
	<style>
		.s0 { fill: #ffffff } 
		.s1 { fill: #0c1320 } 
	</style>
	<path id="Shape 1" fill-rule="evenodd" class="s0" d="m512 1024c-283.1 0-512-228.9-512-512 0-283.1 228.9-512 512-512 283.1 0 512 228.9 512 512 0 283.1-228.9 512-512 512z"/>
	<g id="Background">
		<path id="Path 33" class="s1" d="m473.4 737h368.2l17.4 33h-403z"/>
		<path id="Path 34" class="s1" d="m500 689.9h0.9v1h-0.9z"/>
		<path id="Path 35" class="s1" d="m658.9 653.2h135.8l20.2 36.7h-135.8z"/>
		<path id="Path 36" class="s1" d="m500.9 689.9l63.4-111.2 61.5 111.2z"/>
		<path id="Path 37" class="s1" d="m657.9 412.9l109.3 192.2-132.2 1-4.6-1.9-18.4-32.1-21.1-37.6v-4.8z"/>
		<path id="Path 38" class="s1" d="m532.2 391.3l40.4 69.7 1.8 5.6-1.8 3.8-58.8 103.6-42.2-72.5 4.6-12.3z"/>
		<path id="Path 39" class="s1" d="m454.1 251.8l30.3 53.7-227.7 405.1 95.5 1 91.8-164 42.3 71.7-14.7 29.2-69.8 121.5h-237.8z"/>
		<path id="Path 40" class="s1" d="m511 151l121.2 214.8-30.3 51.8-2.7-0.9-28.5-49.9-14.7-31.1-74.3-130.1z"/>
	</g>
</svg>